<?xml version="1.0" encoding="UTF-8"?>
<svg xmlns="http://www.w3.org/2000/svg" xmlns:xlink="http://www.w3.org/1999/xlink" width="16pt" height="17pt" viewBox="0 0 16 17" version="1.1">
<g id="surface1">
<path style=" stroke:none;fill-rule:nonzero;fill:rgb(100%,100%,100%);fill-opacity:1;" d="M 9.929688 10.394531 L 9.929688 12.300781 L 8.984375 12.300781 L 8.984375 15.121094 C 8.984375 15.382812 8.886719 15.609375 8.691406 15.800781 C 8.496094 15.996094 8.265625 16.089844 8.007812 16.089844 C 7.75 16.089844 7.527344 15.996094 7.335938 15.808594 C 7.148438 15.621094 7.050781 15.394531 7.050781 15.121094 L 7.050781 12.300781 L 6.085938 12.300781 L 6.085938 10.394531 L 7.050781 10.394531 L 7.050781 1.84375 C 7.050781 1.574219 7.148438 1.347656 7.335938 1.171875 C 7.527344 0.996094 7.746094 0.910156 8 0.910156 C 8.277344 0.910156 8.507812 1 8.699219 1.179688 C 8.886719 1.363281 8.984375 1.582031 8.984375 1.84375 L 8.984375 10.394531 Z M 15.707031 4.699219 L 15.707031 6.605469 L 14.757812 6.605469 L 14.757812 15.121094 C 14.757812 15.382812 14.664062 15.609375 14.472656 15.800781 C 14.285156 15.996094 14.050781 16.089844 13.777344 16.089844 C 13.511719 16.089844 13.289062 15.996094 13.101562 15.808594 C 12.917969 15.621094 12.828125 15.394531 12.828125 15.121094 L 12.828125 6.605469 L 11.863281 6.605469 L 11.863281 4.699219 L 12.828125 4.699219 L 12.828125 1.84375 C 12.828125 1.574219 12.917969 1.347656 13.09375 1.171875 C 13.273438 0.996094 13.5 0.910156 13.777344 0.910156 C 14.050781 0.910156 14.285156 1 14.472656 1.179688 C 14.664062 1.363281 14.757812 1.582031 14.757812 1.84375 L 14.757812 4.699219 Z M 4.15625 6.605469 L 4.15625 8.492188 L 3.207031 8.492188 L 3.207031 15.121094 C 3.207031 15.382812 3.113281 15.609375 2.929688 15.800781 C 2.746094 15.996094 2.515625 16.089844 2.242188 16.089844 C 1.976562 16.089844 1.75 15.996094 1.558594 15.808594 C 1.371094 15.621094 1.277344 15.394531 1.277344 15.121094 L 1.277344 8.492188 L 0.308594 8.492188 L 0.308594 6.605469 L 1.277344 6.605469 L 1.277344 1.84375 C 1.277344 1.574219 1.367188 1.347656 1.550781 1.171875 C 1.734375 0.996094 1.964844 0.910156 2.242188 0.910156 C 2.515625 0.910156 2.746094 1 2.929688 1.179688 C 3.113281 1.363281 3.207031 1.582031 3.207031 1.84375 L 3.207031 6.605469 Z M 4.15625 6.605469 "/>
</g>
</svg>
